<?xml version="1.0" encoding="UTF-8"?>
<svg width="256px" height="17px" viewBox="0 0 256 17" version="1.1" xmlns="http://www.w3.org/2000/svg" xmlns:xlink="http://www.w3.org/1999/xlink">
    <!-- Generator: Sketch 64 (93537) - https://sketch.com -->
    <title>&lt; PARAMO SOFTW RE &gt;</title>
    <desc>Created with Sketch.</desc>
    <g id="logo" stroke="none" stroke-width="1" fill="none" fill-rule="evenodd">
        <g id="2" transform="translate(-5.000000, -14.000000)">
            <g id="Logo-white" transform="translate(5.000000, 14.000000)">
                <polyline id="Line" stroke="#FFFFFF" stroke-linecap="square" points="194.5 16.5 201.5 0.5 208.5 16.5"></polyline>
                <polyline id="Line-3" stroke="#FFFFFF" stroke-linecap="square" points="199.5 6.5 200.3 6 201.5 7 202.3 6 203.5 6.5"></polyline>
                <g id="&lt;-PARAMO-SOFTW-RE-&gt;" transform="translate(0.796000, 0.028000)" fill-rule="nonzero">
                    <path d="M11.044,14.982 L11.044,13.882 L1.188,9.306 L11.044,4.73 L11.044,3.63 L1.42108547e-14,8.778 L1.42108547e-14,9.834 L11.044,14.982 Z M22.154,15.972 L22.154,8.58 L25.52,8.58 C26.136,8.58 26.7263333,8.49933333 27.291,8.338 C27.8556667,8.17666667 28.3543333,7.931 28.787,7.601 C29.2196667,7.271 29.5643333,6.84933333 29.821,6.336 C30.0776667,5.82266667 30.206,5.214 30.206,4.51 C30.206,3.70333333 30.0483333,3.03233333 29.733,2.497 C29.4176667,1.96166667 29.0143333,1.54 28.523,1.232 C28.0316667,0.924 27.489,0.707666667 26.895,0.583 C26.301,0.458333333 25.7326667,0.396 25.19,0.396 L25.19,0.396 L20.702,0.396 L20.702,15.972 L22.154,15.972 Z M25.454,7.26 L22.154,7.26 L22.154,1.716 L25.366,1.716 C25.7766667,1.716 26.1873333,1.76733333 26.598,1.87 C27.0086667,1.97266667 27.3716667,2.13766667 27.687,2.365 C28.0023333,2.59233333 28.259,2.882 28.457,3.234 C28.655,3.586 28.754,4.01133333 28.754,4.51 C28.754,5.02333333 28.6586667,5.456 28.468,5.808 C28.2773333,6.16 28.028,6.44233333 27.72,6.655 C27.412,6.86766667 27.06,7.02166667 26.664,7.117 C26.268,7.21233333 25.8646667,7.26 25.454,7.26 L25.454,7.26 Z M31.196,15.972 L32.956,11.836 L41.206,11.836 L42.9,15.972 L44.528,15.972 L37.972,0.396 L36.476,0.396 L29.678,15.972 L31.196,15.972 Z M40.678,10.516 L33.528,10.516 L37.158,1.98 L40.678,10.516 Z M48.224,15.972 L48.224,8.58 L50.93,8.58 L55.308,15.972 L56.958,15.972 L52.426,8.492 C52.8513333,8.43333333 53.2986667,8.33066667 53.768,8.184 C54.2373333,8.03733333 54.6663333,7.81366667 55.055,7.513 C55.4436667,7.21233333 55.7663333,6.82 56.023,6.336 C56.2796667,5.852 56.408,5.236 56.408,4.488 C56.408,3.81333333 56.298,3.24133333 56.078,2.772 C55.858,2.30266667 55.5793333,1.914 55.242,1.606 C54.9046667,1.298 54.5233333,1.06333333 54.098,0.902 C53.6726667,0.740666667 53.2546667,0.623333333 52.844,0.55 C52.4333333,0.476666667 52.052,0.432666667 51.7,0.418 C51.348,0.403333333 51.0693333,0.396 50.864,0.396 L50.864,0.396 L46.772,0.396 L46.772,15.972 L48.224,15.972 Z M51.304,7.26 L48.224,7.26 L48.224,1.716 L51.304,1.716 C52.0666667,1.716 52.6863333,1.81133333 53.163,2.002 C53.6396667,2.19266667 54.01,2.42733333 54.274,2.706 C54.538,2.98466667 54.7176667,3.28533333 54.813,3.608 C54.9083333,3.93066667 54.956,4.224 54.956,4.488 C54.956,4.752 54.9083333,5.04533333 54.813,5.368 C54.7176667,5.69066667 54.538,5.99133333 54.274,6.27 C54.01,6.54866667 53.6396667,6.78333333 53.163,6.974 C52.6863333,7.16466667 52.0666667,7.26 51.304,7.26 L51.304,7.26 Z M59.312,15.972 L61.072,11.836 L69.322,11.836 L71.016,15.972 L72.644,15.972 L66.088,0.396 L64.592,0.396 L57.794,15.972 L59.312,15.972 Z M68.794,10.516 L61.644,10.516 L65.274,1.98 L68.794,10.516 Z M76.186,15.972 L76.186,2.244 L76.23,2.244 L82.258,15.972 L82.896,15.972 L88.836,2.244 L88.88,2.244 L88.88,15.972 L90.332,15.972 L90.332,0.396 L88.264,0.396 L82.588,13.464 L76.912,0.396 L74.734,0.396 L74.734,15.972 L76.186,15.972 Z M101.486,16.368 C102.674,16.368 103.763,16.1663333 104.753,15.763 C105.743,15.3596667 106.59,14.795 107.294,14.069 C107.998,13.343 108.548,12.4776667 108.944,11.473 C109.34,10.4683333 109.538,9.372 109.538,8.184 C109.538,6.996 109.34,5.90333333 108.944,4.906 C108.548,3.90866667 107.998,3.047 107.294,2.321 C106.59,1.595 105.743,1.02666667 104.753,0.616 C103.763,0.205333333 102.674,-3.55271368e-15 101.486,-3.55271368e-15 C100.298,-3.55271368e-15 99.209,0.205333333 98.219,0.616 C97.229,1.02666667 96.382,1.595 95.678,2.321 C94.974,3.047 94.424,3.90866667 94.028,4.906 C93.632,5.90333333 93.434,6.996 93.434,8.184 C93.434,9.372 93.632,10.4683333 94.028,11.473 C94.424,12.4776667 94.974,13.343 95.678,14.069 C96.382,14.795 97.229,15.3596667 98.219,15.763 C99.209,16.1663333 100.298,16.368 101.486,16.368 Z M101.486,15.048 C100.474,15.048 99.561,14.872 98.747,14.52 C97.933,14.168 97.24,13.684 96.668,13.068 C96.096,12.452 95.656,11.726 95.348,10.89 C95.04,10.054 94.886,9.152 94.886,8.184 C94.886,7.216 95.04,6.314 95.348,5.478 C95.656,4.642 96.096,3.916 96.668,3.3 C97.24,2.684 97.933,2.2 98.747,1.848 C99.561,1.496 100.474,1.32 101.486,1.32 C102.498,1.32 103.411,1.496 104.225,1.848 C105.039,2.2 105.732,2.684 106.304,3.3 C106.876,3.916 107.316,4.642 107.624,5.478 C107.932,6.314 108.086,7.216 108.086,8.184 C108.086,9.152 107.932,10.054 107.624,10.89 C107.316,11.726 106.876,12.452 106.304,13.068 C105.732,13.684 105.039,14.168 104.225,14.52 C103.411,14.872 102.498,15.048 101.486,15.048 Z" id="&lt;PARAMO" fill="#CD4040"></path>
                    <path d="M122.606,16.368 C123.236667,16.368 123.845333,16.2726667 124.432,16.082 C125.018667,15.8913333 125.535667,15.609 125.983,15.235 C126.430333,14.861 126.786,14.4026667 127.05,13.86 C127.314,13.3173333 127.446,12.694 127.446,11.99 C127.446,11.022 127.248,10.263 126.852,9.713 C126.456,9.163 125.961,8.734 125.367,8.426 C124.773,8.118 124.127667,7.87233333 123.431,7.689 C122.734333,7.50566667 122.089,7.293 121.495,7.051 C120.901,6.809 120.406,6.479 120.01,6.061 C119.614,5.643 119.416,5.04533333 119.416,4.268 C119.416,3.76933333 119.511333,3.33666667 119.702,2.97 C119.892667,2.60333333 120.145667,2.299 120.461,2.057 C120.776333,1.815 121.146667,1.63166667 121.572,1.507 C121.997333,1.38233333 122.444667,1.32 122.914,1.32 C123.588667,1.32 124.171667,1.44833333 124.663,1.705 C125.154333,1.96166667 125.583333,2.34666667 125.95,2.86 L125.95,2.86 L127.204,1.958 C126.676,1.254 126.049,0.751666667 125.323,0.451 C124.597,0.150333333 123.808667,-3.55271368e-15 122.958,-3.55271368e-15 C122.298,-3.55271368e-15 121.667333,0.0916666667 121.066,0.275 C120.464667,0.458333333 119.933,0.729666667 119.471,1.089 C119.009,1.44833333 118.642333,1.89566667 118.371,2.431 C118.099667,2.96633333 117.964,3.57866667 117.964,4.268 C117.964,5.00133333 118.077667,5.61733333 118.305,6.116 C118.532333,6.61466667 118.836667,7.029 119.218,7.359 C119.599333,7.689 120.028333,7.95666667 120.505,8.162 C120.981667,8.36733333 121.473,8.55066667 121.979,8.712 C122.485,8.87333333 122.976333,9.03466667 123.453,9.196 C123.929667,9.35733333 124.358667,9.55166667 124.74,9.779 C125.121333,10.0063333 125.425667,10.296 125.653,10.648 C125.880333,11 125.994,11.4473333 125.994,11.99 C125.994,12.4593333 125.902333,12.881 125.719,13.255 C125.535667,13.629 125.286333,13.948 124.971,14.212 C124.655667,14.476 124.285333,14.6813333 123.86,14.828 C123.434667,14.9746667 122.98,15.048 122.496,15.048 C121.718667,15.048 121.025667,14.8866667 120.417,14.564 C119.808333,14.2413333 119.313333,13.75 118.932,13.09 L118.932,13.09 L117.546,14.014 C118.162,14.8646667 118.902667,15.4696667 119.768,15.829 C120.633333,16.1883333 121.579333,16.368 122.606,16.368 Z M137.786,16.368 C138.974,16.368 140.063,16.1663333 141.053,15.763 C142.043,15.3596667 142.89,14.795 143.594,14.069 C144.298,13.343 144.848,12.4776667 145.244,11.473 C145.64,10.4683333 145.838,9.372 145.838,8.184 C145.838,6.996 145.64,5.90333333 145.244,4.906 C144.848,3.90866667 144.298,3.047 143.594,2.321 C142.89,1.595 142.043,1.02666667 141.053,0.616 C140.063,0.205333333 138.974,-3.55271368e-15 137.786,-3.55271368e-15 C136.598,-3.55271368e-15 135.509,0.205333333 134.519,0.616 C133.529,1.02666667 132.682,1.595 131.978,2.321 C131.274,3.047 130.724,3.90866667 130.328,4.906 C129.932,5.90333333 129.734,6.996 129.734,8.184 C129.734,9.372 129.932,10.4683333 130.328,11.473 C130.724,12.4776667 131.274,13.343 131.978,14.069 C132.682,14.795 133.529,15.3596667 134.519,15.763 C135.509,16.1663333 136.598,16.368 137.786,16.368 Z M137.786,15.048 C136.774,15.048 135.861,14.872 135.047,14.52 C134.233,14.168 133.54,13.684 132.968,13.068 C132.396,12.452 131.956,11.726 131.648,10.89 C131.34,10.054 131.186,9.152 131.186,8.184 C131.186,7.216 131.34,6.314 131.648,5.478 C131.956,4.642 132.396,3.916 132.968,3.3 C133.54,2.684 134.233,2.2 135.047,1.848 C135.861,1.496 136.774,1.32 137.786,1.32 C138.798,1.32 139.711,1.496 140.525,1.848 C141.339,2.2 142.032,2.684 142.604,3.3 C143.176,3.916 143.616,4.642 143.924,5.478 C144.232,6.314 144.386,7.216 144.386,8.184 C144.386,9.152 144.232,10.054 143.924,10.89 C143.616,11.726 143.176,12.452 142.604,13.068 C142.032,13.684 141.339,14.168 140.525,14.52 C139.711,14.872 138.798,15.048 137.786,15.048 Z M150.546,15.972 L150.546,8.58 L157.872,8.58 L157.872,7.26 L150.546,7.26 L150.546,1.716 L158.422,1.716 L158.422,0.396 L149.094,0.396 L149.094,15.972 L150.546,15.972 Z M166.232,15.972 L166.232,1.716 L171.556,1.716 L171.556,0.396 L159.456,0.396 L159.456,1.716 L164.78,1.716 L164.78,15.972 L166.232,15.972 Z M178.244,15.972 L182.182,2.112 L182.226,2.112 L186.164,15.972 L187.946,15.972 L192.478,0.396 L190.982,0.396 L187.11,14.19 L187.066,14.19 L183.128,0.396 L181.28,0.396 L177.342,14.19 L177.298,14.19 L173.426,0.396 L171.93,0.396 L176.462,15.972 L178.244,15.972 Z M213.334,15.972 L213.334,8.58 L216.04,8.58 L220.418,15.972 L222.068,15.972 L217.536,8.492 C217.961333,8.43333333 218.408667,8.33066667 218.878,8.184 C219.347333,8.03733333 219.776333,7.81366667 220.165,7.513 C220.553667,7.21233333 220.876333,6.82 221.133,6.336 C221.389667,5.852 221.518,5.236 221.518,4.488 C221.518,3.81333333 221.408,3.24133333 221.188,2.772 C220.968,2.30266667 220.689333,1.914 220.352,1.606 C220.014667,1.298 219.633333,1.06333333 219.208,0.902 C218.782667,0.740666667 218.364667,0.623333333 217.954,0.55 C217.543333,0.476666667 217.162,0.432666667 216.81,0.418 C216.458,0.403333333 216.179333,0.396 215.974,0.396 L215.974,0.396 L211.882,0.396 L211.882,15.972 L213.334,15.972 Z M216.414,7.26 L213.334,7.26 L213.334,1.716 L216.414,1.716 C217.176667,1.716 217.796333,1.81133333 218.273,2.002 C218.749667,2.19266667 219.12,2.42733333 219.384,2.706 C219.648,2.98466667 219.827667,3.28533333 219.923,3.608 C220.018333,3.93066667 220.066,4.224 220.066,4.488 C220.066,4.752 220.018333,5.04533333 219.923,5.368 C219.827667,5.69066667 219.648,5.99133333 219.384,6.27 C219.12,6.54866667 218.749667,6.78333333 218.273,6.974 C217.796333,7.16466667 217.176667,7.26 216.414,7.26 L216.414,7.26 Z M234.806,15.972 L234.806,14.652 L226.38,14.652 L226.38,8.58 L233.948,8.58 L233.948,7.26 L226.38,7.26 L226.38,1.716 L234.454,1.716 L234.454,0.396 L224.928,0.396 L224.928,15.972 L234.806,15.972 Z" id="SOFTWRE" fill="#FFFFFF"></path>
                    <polygon id="&gt;" fill="#CD4040" points="243.364 14.982 254.408 9.834 254.408 8.778 243.364 3.63 243.364 4.73 253.22 9.306 243.364 13.882"></polygon>
                </g>
            </g>
        </g>
    </g>
</svg>
